# xmcd
#
# Track frame offsets: 
#        150
#        16181
#        31819
#        46743
#        63947
#        82472
#        99739
#        115538
#        133810
#        151580
#        169432
#        183548
#        201546
#        218055
#        232874
#        250615
#        263461
#
# Disc length: 3706 seconds
#
# Revision: 0
# Processed by: cddbd v1.5.2PL0 Copyright (c) Steve Scherf et al.
# Submitted via: ExactAudioCopy v1.1
#
DISCID=dd0e7811
DTITLE=The Bosshoss - Dos Bros - CD 2
DYEAR=2016
DGENRE=Country
TTITLE0=No Diggity (feat. Xavier Naidoo)
TTITLE1=Jolene (feat. The Common Linnets)
TTITLE2=Geronimo (feat. Aura Dione)
TTITLE3=The Beautiful People
TTITLE4=Walking Away (feat. Rea Garvey)
TTITLE5=What i did for Love (feat. Nena)
TTITLE6=Candy Shop
TTITLE7=Thrift Shop
TTITLE8=Easy
TTITLE9=Boom Boom (feat. The Graveltones)
TTITLE10=Leuchtturm
TTITLE11=Superheld
TTITLE12=Wake Up
TTITLE13=Das Spiel
TTITLE14=Alles em Lot
TTITLE15=Close (Duett mit Annett Louisan)
TTITLE16=Schau nicht mehr zurück
EXTD=
EXTT0=
EXTT1=
EXTT2=
EXTT3=
EXTT4=
EXTT5=
EXTT6=
EXTT7=
EXTT8=
EXTT9=
EXTT10=
EXTT11=
EXTT12=
EXTT13=
EXTT14=
EXTT15=
EXTT16=
PLAYORDER=
